<svg xmlns="http://www.w3.org/2000/svg" viewBox="0 0 512 512" id="netbanking">
  <rect width="497" height="386.9" x="7.5" y="7.5" fill="#dadadc" rx="30"></rect>
  <path fill="#c8c5cc" d="M474.5,7.5h-30a30,30,0,0,1,30,30V364.4a30,30,0,0,1-30,30h30a30,30,0,0,0,30-30V37.5A30,30,0,0,0,474.5,7.5Z"></path>
  <rect width="284.54" height="428.76" x="113.73" y="-30.49" fill="#fff" rx="5" transform="rotate(90 256 183.89)"></rect>
  <rect width="103" height="61.1" x="204.5" y="394.4" fill="#c8c5cc"></rect>
  <rect width="30" height="61.1" x="277.5" y="394.4" fill="#aeadb3"></rect>
  <path fill="#dadadc" d="M362,504.5H150l12.35-39.59a17.08,17.08,0,0,1,15.26-9.41H334.41a17.08,17.08,0,0,1,15.26,9.41Z"></path>
  <path fill="#c8c5cc" d="M349.67,464.91a17.08,17.08,0,0,0-15.26-9.41h-30a17.08,17.08,0,0,1,15.26,9.41L332,504.5h30Z"></path>
  <rect width="121" height="45" x="304.38" y="122.8" fill="#f8be32" rx="7"></rect>
  <path fill="#fed030" d="M418.38,122.8h-30a7,7,0,0,1,7,7v31a7,7,0,0,1-7,7h30a7,7,0,0,0,7-7v-31A7,7,0,0,0,418.38,122.8Z"></path>
  <rect width="121" height="45" x="304.38" y="197.8" fill="#19ac66" rx="7"></rect>
  <path fill="#17a454" d="M418.38,197.8h-30a7,7,0,0,1,7,7v31a7,7,0,0,1-7,7h30a7,7,0,0,0,7-7v-31A7,7,0,0,0,418.38,197.8Z"></path>
  <polygon fill="#8b8893" points="86.62 144.98 171.23 77.8 256.08 144.98 86.62 144.98"></polygon>
  <polygon fill="#787681" points="171.23 77.8 163.74 83.74 241.08 144.98 256.08 144.98 171.23 77.8"></polygon>
  <rect width="30" height="99.63" x="208.85" y="160.35" fill="#dadadc"></rect>
  <rect width="15" height="99.63" x="223.85" y="160.35" fill="#c8c5cc"></rect>
  <rect width="30" height="99.63" x="103.85" y="160.35" fill="#dadadc"></rect>
  <rect width="15" height="99.63" x="118.85" y="160.35" fill="#c8c5cc"></rect>
  <path fill="#787681" d="M256.08,290H86.62V275a15,15,0,0,1,15-15H241.08a15,15,0,0,1,15,15Z"></path>
  <path fill="#57565c" d="M241.08,260h-15a15,15,0,0,1,15,15v15h15V275A15,15,0,0,0,241.08,260Z"></path>
  <path fill="#787681" d="M252.08,175H90.62a4,4,0,0,1-4-4V145H256.08v26A4,4,0,0,1,252.08,175Z"></path>
  <path fill="#57565c" d="M241.08,145v26a4,4,0,0,1-4,4h15a4,4,0,0,0,4-4V145Z"></path>
  <path fill="#3c3b41" d="M256,354.41a7.5,7.5,0,1,0,7.5,7.5A7.5,7.5,0,0,0,256,354.41Zm-169.38-57H256.07a7.5,7.5,0,0,0,7.5-7.5v-15A22.53,22.53,0,0,0,246.34,253V182.41h5.73a11.51,11.51,0,0,0,11.5-11.5v-26a6.84,6.84,0,0,0-.06-.91,1.48,1.48,0,0,0,0-.19,6.67,6.67,0,0,0-.19-.91l0-.12a7.89,7.89,0,0,0-.36-1c0-.06,0-.11-.08-.16a6.83,6.83,0,0,0-.49-.88l0,0a8.44,8.44,0,0,0-.64-.81l-.15-.17a9.87,9.87,0,0,0-.75-.7l0,0L175.88,71.85a7.5,7.5,0,0,0-9.32,0L82,139l0,0a7.16,7.16,0,0,0-.76.7l-.15.16a9.77,9.77,0,0,0-.63.81l0,0a9.25,9.25,0,0,0-.49.87c0,.06,0,.11-.07.16a6.27,6.27,0,0,0-.37,1l0,.12a8.62,8.62,0,0,0-.19.91l0,.19a8.88,8.88,0,0,0,0,.9v26a11.51,11.51,0,0,0,11.5,11.5h5.72V253a22.53,22.53,0,0,0-17.22,21.87v15A7.5,7.5,0,0,0,86.62,297.41ZM171.23,87.3l63.29,50.11H108.12ZM94.12,167.41v-15H248.57v15Zm137.22,15v70h-15v-70Zm-30,0v70h-60v-70Zm-75,0v70h-15v-70Zm-32.22,92.5a7.5,7.5,0,0,1,7.5-7.5H241.07a7.5,7.5,0,0,1,7.5,7.5v7.5H94.12ZM474.5-.07H37.5A37.54,37.54,0,0,0,0,37.43v326.9a37.55,37.55,0,0,0,37.5,37.5H197v46.1H177.59a24.45,24.45,0,0,0-22,13.54,7,7,0,0,0-.46,1.14L142.82,502.2a7.49,7.49,0,0,0,7.15,9.73H362a7.5,7.5,0,0,0,7.16-9.73l-12.35-39.59a9.36,9.36,0,0,0-.46-1.14,24.47,24.47,0,0,0-22-13.54H315v-46.1H474.5a37.55,37.55,0,0,0,37.5-37.5V37.43A37.55,37.55,0,0,0,474.5-.07Zm-140.1,463a9.52,9.52,0,0,1,8.31,4.81l9.11,29.19H160.17l9.11-29.19a9.52,9.52,0,0,1,8.31-4.81Zm-122.4-15v-46.1h88v46.1Zm285-83.6a22.53,22.53,0,0,1-22.5,22.5H37.5A22.53,22.53,0,0,1,15,364.33V37.43a22.52,22.52,0,0,1,22.5-22.5h437A22.53,22.53,0,0,1,497,37.43ZM465.38,34.05H46.62a12.51,12.51,0,0,0-12.5,12.5V321.09a12.51,12.51,0,0,0,12.5,12.5H465.38a12.52,12.52,0,0,0,12.5-12.5V46.55A12.52,12.52,0,0,0,465.38,34.05Zm-2.5,284.54H49.12V49.05H462.88Zm-151.5-68.36h107a14.52,14.52,0,0,0,14.5-14.5v-31a14.52,14.52,0,0,0-14.5-14.5h-107a14.51,14.51,0,0,0-14.5,14.5v31A14.52,14.52,0,0,0,311.38,250.23Zm.5-45h106v30h-106Zm-7.71,75h121a7.5,7.5,0,1,0,0-15h-121a7.5,7.5,0,0,0,0,15Zm-132.94-170a8.53,8.53,0,1,0,8.53,8.53A8.53,8.53,0,0,0,171.23,110.23Zm140.15,65h107a14.52,14.52,0,0,0,14.5-14.5v-31a14.52,14.52,0,0,0-14.5-14.5h-107a14.51,14.51,0,0,0-14.5,14.5v31A14.52,14.52,0,0,0,311.38,175.23Zm.5-45h106v30h-106Z"></path>
</svg>
